<?xml version="1.0" encoding="utf-8"?>
<!-- Generator: Adobe Illustrator 24.1.0, SVG Export Plug-In . SVG Version: 6.00 Build 0)  -->
<svg version="1.1" id="Layer_1" xmlns="http://www.w3.org/2000/svg" xmlns:xlink="http://www.w3.org/1999/xlink" x="0px" y="0px"
	 viewBox="0 0 1200 211" style="enable-background:new 0 0 1200 211;" xml:space="preserve">
<style type="text/css">
	.st0{opacity:0.4;fill:url(#SVGID_1_);enable-background:new    ;}
	.st1{fill:#C2BBFF;}
	.st2{fill:none;stroke:#09090A;stroke-width:1.3665;stroke-linecap:round;stroke-miterlimit:10;}
	.st3{fill:#9781FF;}
	.st4{clip-path:url(#SVGID_3_);}
	.st5{fill:#FFA697;}
	.st6{fill:#FFFFFF;}
	.st7{fill:#09090A;}
	.st8{fill:none;stroke:#09090A;stroke-width:0.5894;stroke-linecap:round;stroke-miterlimit:10;}
	.st9{fill:none;stroke:#09090A;stroke-width:0.4427;stroke-linecap:round;stroke-miterlimit:10;}
	.st10{fill:#070707;}
	.st11{fill:#8E50FF;}
	.st12{clip-path:url(#SVGID_5_);}
	.st13{fill:none;stroke:#FFFFFF;stroke-width:0.6197;stroke-linecap:round;stroke-miterlimit:10;}
	.st14{clip-path:url(#SVGID_7_);}
	.st15{fill:none;stroke:#09090A;stroke-width:0.6197;stroke-linecap:round;stroke-miterlimit:10;}
	.st16{clip-path:url(#SVGID_9_);}
	.st17{fill:none;}
	.st18{clip-path:url(#SVGID_11_);}
	.st19{clip-path:url(#SVGID_13_);}
	.st20{clip-path:url(#SVGID_15_);}
	.st21{fill:#161719;}
	.st22{fill:none;stroke:#232C33;stroke-width:0.3295;stroke-miterlimit:10;}
	.st23{fill:#001837;}
</style>
<linearGradient id="SVGID_1_" gradientUnits="userSpaceOnUse" x1="600" y1="25.44" x2="600" y2="212" gradientTransform="matrix(1 0 0 -1 0 212)">
	<stop  offset="0" style="stop-color:#000000"/>
	<stop  offset="0" style="stop-color:#C2BEFC"/>
	<stop  offset="1" style="stop-color:#FFFFFF"/>
</linearGradient>
<rect class="st0" width="1200" height="186.6"/>
<g>
	<path class="st1" d="M779.4,96.2c-50.2-9.4-77.9,28.7-77.9,28.7S693.2,8.7,572.9,27.8C466.5,44.8,419,160,409.4,186.4h424.7
		C834.1,186.4,846.4,108.8,779.4,96.2z"/>
	<g>
		<line class="st2" x1="785.9" y1="185.9" x2="786.1" y2="168.4"/>
		<path class="st3" d="M768.4,144.3c10.7-22.7-5-48.1,18.5-48.1c24.4,0,6,26.6,16.3,46.4c9.8,18.9-3.8,26.8-16.6,26.8
			S761.6,158.7,768.4,144.3z"/>
		<g>
			<defs>
				<path id="SVGID_2_" d="M768.4,144.3c10.7-22.7-5-48.1,18.5-48.1c24.4,0,6,26.6,16.3,46.4c9.8,18.9-3.8,26.8-16.6,26.8
					S761.6,158.7,768.4,144.3z"/>
			</defs>
			<use xlink:href="#SVGID_2_"  style="overflow:visible;fill:#9781FF;"/>
			<clipPath id="SVGID_3_">
				<use xlink:href="#SVGID_2_"  style="overflow:visible;"/>
			</clipPath>
			<g class="st4">
				<line class="st2" x1="786.1" y1="172.9" x2="786.8" y2="95.6"/>
				<line class="st2" x1="770.4" y1="123.6" x2="786.4" y2="143.4"/>
				<line class="st2" x1="803.1" y1="135.7" x2="786.4" y2="153.7"/>
				<line class="st2" x1="786.7" y1="121.3" x2="804.1" y2="105.1"/>
			</g>
		</g>
	</g>
	<path class="st5" d="M663.3,74.8l-5.6-3l-0.5-8.6l0.1-1c0.2-2.1,2.2-3.7,4.3-3.4l1.7,0.2c2.1,0.2,3.7,2.2,3.3,4.3c0,0,0,0,0,0.1
		L663.3,74.8z"/>
	<path class="st6" d="M652.9,95.8c-1.5,0-3-0.6-4-1.7l-21.9-22l8.1-8.1L650.9,80l5-12.1l10.6,4.3l-8.2,20.1
		c-0.7,1.8-2.3,3.1-4.2,3.4C653.6,95.7,653.3,95.8,652.9,95.8z"/>
	<polygon class="st7" points="635,64.1 642.1,87.3 635,80.2 630.2,66.7 635,64.1 	"/>
	<path class="st6" d="M625.9,62.9h5.1c3.8,0,6.8,3.1,6.8,6.8v24.4h-19.3V70.3C618.5,66.2,621.8,62.9,625.9,62.9z"/>
	<path class="st6" d="M598.2,76.9c-1.5,1.1-2.5,2.8-2.6,4.7l-1.1,20.9l12.1,0.6l0.9-17.5l21.9-11.7l-5.7-10.7l-24.9,13.3
		C598.5,76.7,598.4,76.8,598.2,76.9z"/>
	<line class="st8" x1="621.7" y1="78" x2="618.5" y2="79.7"/>
	<path class="st7" d="M662.5,61.5H555.1c-0.4,0-0.8-0.3-0.8-0.8l0,0c0-0.4,0.3-0.8,0.8-0.8h105.5L662.5,61.5z"/>
	<g>
		<path class="st5" d="M666.6,61.9c-0.5,1.7-1.4,4.3-1.9,4c-0.7-0.6,0.6-5.9,0.6-5.9s-1.6,4.9-2.4,4.3c-0.7-0.6,0.3-4.9,0.3-4.9
			s-1.5,4.8-2.4,4.6c-0.9-0.3,0.7-5.2,0.7-5.2"/>
		<path class="st9" d="M666.6,61.9c-0.5,1.7-0.9,2.8-1.4,2.5c-0.7-0.6,0.1-4.4,0.1-4.4s-1.6,4.9-2.4,4.3c-0.7-0.6,0.3-4.9,0.3-4.9
			s-1.5,4.8-2.4,4.6c-0.9-0.3,0.7-5.2,0.7-5.2"/>
	</g>
	<path class="st5" d="M659.5,63.6c0,0,0.7-4.7-0.5-5.3s-1.8,5-1.8,5"/>
	<path class="st9" d="M659.5,63.6c0,0,0.7-4.7-0.5-5.3s-1.8,5-1.8,5"/>
	<polygon class="st6" points="561.4,52.1 571.7,52.1 566.5,59.9 	"/>
	<ellipse cx="573.3" cy="205.1" rx="19.4" ry="1.6"/>
	<polygon class="st5" points="655.1,198 664.4,195.7 659.1,176.3 651,181.3 	"/>
	
		<rect x="577.2" y="165.8" transform="matrix(-0.6537 -0.7568 0.7568 -0.6537 830.5128 728.7787)" class="st5" width="9.6" height="17.2"/>
	<path class="st10" d="M592.1,183.1l-13.9-15.9l38.2-33.4l1.8-34.9l20.3,3l-1.2,37.2c-0.1,2.9-1.4,5.7-3.6,7.6L592.1,183.1z"/>
	<path class="st11" d="M650,190.2l-15.6-43.7l-16.2-40.9l19.6-7.8l16.3,41.1c0,0.1,0.1,0.3,0.1,0.4l15.6,43.9L650,190.2z"/>
	<g>
		<path d="M653.7,194.3l-2.9,8l31.7-0.4c0.1-2.5-9-4.9-18.8-9.8C663.8,192,661.8,197.6,653.7,194.3z"/>
		<polygon class="st6" points="664.6,202.2 662.7,202.2 664.5,198.5 666.4,198.5 		"/>
		<polygon class="st6" points="667.4,202.1 665.5,202.2 667.3,198.5 669.2,198.5 		"/>
		<polygon class="st6" points="670.2,202.1 668.3,202.1 670.1,198.4 672,198.4 		"/>
		<path class="st3" d="M650.9,202.3c0,0-1.5,1.3-1.4,2.6l33.6-0.5c0,0,0.8-1-0.5-2.5L650.9,202.3z"/>
	</g>
	<g>
		<path class="st10" d="M573.3,174.9l-7.8,3.2l21.7,23.2c1.9-1.6-2.4-9.9-5.4-20.5C581.7,180.8,576.2,183.1,573.3,174.9z"/>
		<polygon class="st6" points="574.7,188.2 573.5,186.8 577.4,185.7 578.7,187.1 		"/>
		<polygon class="st6" points="576.6,190.2 575.4,188.9 579.3,187.7 580.6,189.1 		"/>
		<polygon class="st6" points="578.6,192.3 577.3,190.9 581.2,189.8 582.5,191.2 		"/>
		<path class="st3" d="M565.4,178.1c0,0-2-0.2-2.8,0.7l22.9,24.5c0,0,1.2-0.1,1.6-2.1L565.4,178.1z"/>
	</g>
	<path class="st3" d="M637.8,97.9l-19.2-0.3c0,0-2.1,6.7,1.3,12.5"/>
	<path class="st5" d="M596.1,102.6l-0.9,10.5c0,0.3,0.2,0.5,0.4,0.5l0,0c0.3,0,0.5-0.1,0.6-0.4l0.4-2.8c0-0.2,0.2-0.3,0.4-0.3l0,0
		c0.2,0,0.3,0.2,0.3,0.4l-0.7,5.8c0,0.2,0.1,0.4,0.3,0.5l0,0c0.2,0,0.4-0.1,0.5-0.3l0.8-5.2c0-0.2,0.2-0.3,0.4-0.3l0,0
		c0.2,0,0.3,0.2,0.3,0.4l-0.4,5.5c0,0.2,0.1,0.4,0.3,0.4l0.1,0c0.2,0,0.5-0.1,0.5-0.4l0.5-5.7c0-0.2,0.2-0.3,0.4-0.3l0.3,0
		c0.2,0,0.3,0.2,0.3,0.4l-0.2,5.5c0,0.2,0.1,0.4,0.4,0.4l0.1,0c0.2,0,0.5-0.1,0.5-0.4l0.6-8c0-0.2,0.2-0.3,0.4-0.3l0,0
		c0.2,0,0.3,0.2,0.3,0.3l0.1,2.6c0,0.3,0.3,0.6,0.6,0.6l0,0c0.3,0,0.6-0.3,0.6-0.6l-0.3-8.5"/>
	<g>
		<defs>
			<path id="SVGID_4_" d="M650,190.2l-15.6-43.7l-16.2-40.9l19.6-7.8l16.3,41.1c0,0.1,0.1,0.3,0.1,0.4l15.6,43.9L650,190.2z"/>
		</defs>
		<use xlink:href="#SVGID_4_"  style="overflow:visible;fill:#9781FF;"/>
		<clipPath id="SVGID_5_">
			<use xlink:href="#SVGID_4_"  style="overflow:visible;"/>
		</clipPath>
		<g class="st12">
			<path class="st13" d="M616.1,115.1c0,0,7.3-2.4,11.5,0.9c4.2,3.3-6.5,10.3-6.5,10.3"/>
			<path class="st13" d="M646.5,113.3c0,0-9.3,0.6-12.1-2.7c-2.7-3.3,9.6-6.8,9.6-6.8"/>
			<path class="st13" d="M632.7,157.7c0,0,18-2.5,24.7-16.8"/>
			<path class="st13" d="M671.5,157.5c0,0-19.5,5.6-20,9.4s11.8-0.5,12.2,0.9c0.2,1-12.4,5.4-12.1,7.9s19.9-0.6,19.9-0.6"/>
			<path class="st13" d="M634.8,144.1c0,0,14-5.9,13.5-9.6c-0.5-3.7-9.2,0.9-9.7-0.5c-0.4-1,8.5-5.5,7.7-7.9
				c-0.8-2.4-21.2,2.8-21.2,2.8"/>
		</g>
	</g>
	<path class="st6" d="M574.5,70l-7.9-10.1L558.6,70c-3.7,4.7-5.7,10.5-5.7,16.4v0c0,7.6,6.3,14.1,13.9,14
		c7.4-0.1,13.4-6.2,13.4-13.6v-0.4C580.2,80.5,578.2,74.7,574.5,70z"/>
	<g>
		<defs>
			<path id="SVGID_6_" d="M574.5,70l-7.9-10.1L558.6,70c-3.7,4.7-5.7,10.5-5.7,16.4v0c0,7.6,6.3,14.1,13.9,14
				c7.4-0.1,13.4-6.2,13.4-13.6v-0.4C580.2,80.5,578.2,74.7,574.5,70z"/>
		</defs>
		<clipPath id="SVGID_7_">
			<use xlink:href="#SVGID_6_"  style="overflow:visible;"/>
		</clipPath>
		<g class="st14">
			<path class="st15" d="M550.1,97.2c0,0,14.9-3,15.1-6.7c0.3-3.7-9.1-1-9.4-2.4c-0.2-1,9.4-3.7,9.1-6.2s-21.4-1.5-21.4-1.5"/>
			<path class="st15" d="M582.1,79.6c0,0-9.3,0.6-12.1-2.7c-2.7-3.3,9.6-6.8,9.6-6.8"/>
		</g>
	</g>
	
		<ellipse transform="matrix(0.9097 -0.4153 0.4153 0.9097 0.3033 259.9758)" class="st13" cx="597.9" cy="129.3" rx="2.9" ry="2.4"/>
	
		<ellipse transform="matrix(0.9097 -0.4153 0.4153 0.9097 -13.5735 247.6331)" class="st13" cx="562.6" cy="155" rx="2.9" ry="2.4"/>
	<polygon class="st13" points="546.5,115.5 550.5,120.6 552.9,114.1 	"/>
	<polygon class="st13" points="587.6,35.8 591.6,40.9 594,34.4 	"/>
	<g>
		<circle class="st6" cx="419.4" cy="136.5" r="11.8"/>
		<line class="st2" x1="419.4" y1="140.5" x2="419.4" y2="185.7"/>
		<circle class="st3" cx="419.4" cy="136.5" r="11.8"/>
		<g>
			<defs>
				<circle id="SVGID_8_" cx="419.4" cy="136.5" r="11.8"/>
			</defs>
			<clipPath id="SVGID_9_">
				<use xlink:href="#SVGID_8_"  style="overflow:visible;"/>
			</clipPath>
			<g class="st16">
				<line class="st2" x1="419.4" y1="119.7" x2="419.4" y2="180.9"/>
				<g>
					<line class="st2" x1="430.3" y1="124.6" x2="419.4" y2="135.5"/>
					<line class="st2" x1="404.9" y1="130.3" x2="419.5" y2="144.9"/>
				</g>
			</g>
		</g>
		<circle class="st3" cx="402.7" cy="159.4" r="9.3"/>
		<line class="st2" x1="405" y1="161.6" x2="419.4" y2="176.1"/>
		<circle class="st17" cx="402.7" cy="159.4" r="9.3"/>
		<g>
			<defs>
				<circle id="SVGID_10_" cx="402.7" cy="159.4" r="9.3"/>
			</defs>
			<use xlink:href="#SVGID_10_"  style="overflow:visible;fill:#9781FF;"/>
			<clipPath id="SVGID_11_">
				<use xlink:href="#SVGID_10_"  style="overflow:visible;"/>
			</clipPath>
			<g class="st18">
				<line class="st2" x1="393.4" y1="150.1" x2="416.8" y2="173.4"/>
				<g>
					<line class="st2" x1="402.2" y1="146.8" x2="402.2" y2="158.9"/>
					<line class="st2" x1="391.3" y1="164" x2="407.5" y2="164"/>
				</g>
			</g>
		</g>
	</g>
	<g>
		<circle class="st17" cx="472.4" cy="125.3" r="11.8"/>
		<line class="st2" x1="472.4" y1="129.3" x2="472.4" y2="185.7"/>
		<circle class="st3" cx="472.4" cy="125.3" r="11.8"/>
		<g>
			<defs>
				<circle id="SVGID_12_" cx="472.4" cy="125.3" r="11.8"/>
			</defs>
			<clipPath id="SVGID_13_">
				<use xlink:href="#SVGID_12_"  style="overflow:visible;"/>
			</clipPath>
			<g class="st19">
				<line class="st2" x1="472.4" y1="108.5" x2="472.4" y2="180.9"/>
				<g>
					<line class="st2" x1="461.6" y1="113.5" x2="472.4" y2="124.3"/>
					<line class="st2" x1="486" y1="120.4" x2="472.4" y2="131.7"/>
				</g>
			</g>
		</g>
		<circle class="st3" cx="489.1" cy="159.4" r="9.3"/>
		<line class="st2" x1="486.9" y1="161.6" x2="472.4" y2="176.1"/>
		<circle class="st17" cx="489.1" cy="159.4" r="9.3"/>
		<g>
			<defs>
				<circle id="SVGID_14_" cx="489.1" cy="159.4" r="9.3"/>
			</defs>
			<use xlink:href="#SVGID_14_"  style="overflow:visible;fill:#9781FF;"/>
			<clipPath id="SVGID_15_">
				<use xlink:href="#SVGID_14_"  style="overflow:visible;"/>
			</clipPath>
			<g class="st20">
				<line class="st2" x1="498.4" y1="150.1" x2="475.1" y2="173.4"/>
				<g>
					<line class="st2" x1="489.6" y1="146.8" x2="489.6" y2="158.9"/>
					<line class="st2" x1="500.6" y1="164" x2="484.4" y2="164"/>
				</g>
			</g>
		</g>
	</g>
	<path class="st3" d="M703.8,54.7h19.8c5.2,0,9.5-4.2,9.5-9.5v0c0-5.2-4.2-9.5-9.5-9.5h-19.8c-5.2,0-9.5,4.2-9.5,9.5v0
		C694.3,50.5,698.6,54.7,703.8,54.7z"/>
	
		<rect x="704.7" y="51.7" transform="matrix(-0.7071 -0.7071 0.7071 -0.7071 1169.4647 593.8871)" class="st3" width="6.1" height="6.1"/>
	<path class="st13" d="M699.6,46.7c0,0,11.4-8.7,13-1.5c1.3,5.8,11.3,1.9,13.2-2.6"/>
	<path class="st21" d="M628.1,55.9L628.1,55.9c4.4-0.8,7.3-5,6.5-9.3l-0.4-2c-0.8-4.4-5-7.3-9.3-6.5l0,0c-4.4,0.8-7.3,5-6.5,9.3
		l0.4,2C619.5,53.8,623.7,56.7,628.1,55.9z"/>
	<g>
		<g>
			<path class="st22" d="M634.2,58.8"/>
			<path class="st22" d="M629.8,63.6"/>
		</g>
		<path class="st5" d="M628.8,43.5c0,0,3,3.7,4.9,3.1c0.6,3.5,0.4,6.1-1.6,8c-1.3,1.1-2.9,1.7-4.7,1.6c-3.5-0.4-5.5-3.7-6.2-7.3
			C625.2,48,628.8,43.5,628.8,43.5z"/>
		<g>
			
				<ellipse transform="matrix(0.9849 -0.1734 0.1734 0.9849 1.0227 110.2431)" class="st23" cx="631.6" cy="49.3" rx="0.5" ry="0.8"/>
			
				<ellipse transform="matrix(0.9849 -0.1734 0.1734 0.9849 0.7913 109.378)" class="st23" cx="626.5" cy="50.2" rx="0.5" ry="0.8"/>
		</g>
		<path class="st5" d="M621.3,48.8c0.3,1,0.6,1.8,0.9,2.6c-0.1,0.1-0.2,0.1-0.4,0.1c-0.7,0.1-1.5-0.4-1.6-1.1
			C620.1,49.7,620.5,49,621.3,48.8z"/>
	</g>
	<circle class="st21" cx="616.2" cy="35" r="4.9"/>
</g>
</svg>
