<?xml version="1.0" encoding="utf-8"?>
<!-- Generator: Adobe Illustrator 24.1.0, SVG Export Plug-In . SVG Version: 6.00 Build 0)  -->
<svg version="1.1" id="Layer_1" xmlns="http://www.w3.org/2000/svg" xmlns:xlink="http://www.w3.org/1999/xlink" x="0px" y="0px"
	 viewBox="0 0 1200 211" style="enable-background:new 0 0 1200 211;" xml:space="preserve">
<style type="text/css">
	.st0{opacity:0.5;fill:url(#SVGID_1_);enable-background:new    ;}
	.st1{fill:none;stroke:#FFFFFF;stroke-width:0.6197;stroke-linecap:round;stroke-miterlimit:10;}
	.st2{fill:#FFFFFF;}
	.st3{fill:#1A0A40;}
	.st4{fill:#C2BBFF;}
	.st5{fill:#9781FF;}
	.st6{fill:#130525;}
	.st7{fill:#8070FC;}
	.st8{opacity:0.5;fill:#FFFFFF;}
	.st9{fill:#FFA697;}
	.st10{fill:#FDA187;}
	.st11{fill:#161719;}
	.st12{fill:#001837;}
	.st13{fill:#070707;}
	.st14{fill:none;stroke:#000000;stroke-width:0.3165;stroke-miterlimit:10;}
	.st15{clip-path:url(#SVGID_3_);}
	.st16{fill:none;stroke:#FFFFFF;stroke-width:0.5321;stroke-linecap:round;stroke-miterlimit:10;}
	.st17{fill:none;stroke:#09090A;stroke-width:0.5856;stroke-linecap:round;stroke-miterlimit:10;}
	.st18{clip-path:url(#SVGID_5_);}
	.st19{clip-path:url(#SVGID_7_);}
</style>
<linearGradient id="SVGID_1_" gradientUnits="userSpaceOnUse" x1="600" y1="694.56" x2="600" y2="508" gradientTransform="matrix(1 0 0 1 0 -508)">
	<stop  offset="0" style="stop-color:#000000"/>
	<stop  offset="0" style="stop-color:#C2BEFC"/>
	<stop  offset="1" style="stop-color:#FFFFFF"/>
</linearGradient>
<rect class="st0" width="1200" height="186.6"/>
<polygon class="st1" points="546.5,115.5 550.5,120.6 552.9,114.1 "/>
<g>
	<path class="st2" d="M1085.8,93.8c51.1,0.1,92.5,41.6,92.4,92.7h-281c0-15.8,5.7-31.1,15.9-43.2c23.9-28,65.9-31.3,93.9-7.4
		c17.1-26.3,46.3-42.1,77.6-42.2C1085,93.8,1085.4,93.8,1085.8,93.8z"/>
	<g>
		<rect x="1175.4" y="28.1" class="st3" width="24.6" height="37.6"/>
		<polygon class="st4" points="1175.4,65.8 1160,65.8 1160,28.3 1167.7,19.2 1175.4,28.3 		"/>
		<polygon class="st5" points="1175.4,28.3 1167.7,19.2 1191.7,19.2 1200,28.1 		"/>
		<rect x="1165.5" y="35.4" class="st6" width="4.5" height="8.1"/>
		<rect x="1165.5" y="48.4" class="st6" width="4.5" height="8.1"/>
		<rect x="1180.2" y="35.4" class="st2" width="4.5" height="8.1"/>
		<rect x="1180.2" y="48.4" class="st2" width="4.5" height="8.1"/>
		<rect x="1190.7" y="35.4" class="st2" width="4.5" height="8.1"/>
		<rect x="1190.7" y="48.4" class="st2" width="4.5" height="8.1"/>
		<rect x="1120.3" y="65.8" class="st5" width="79.7" height="119.7"/>
		<rect x="1160.2" y="65.8" class="st7" width="39.8" height="119.7"/>
		<rect x="1135.8" y="51.4" class="st3" width="24.6" height="37.6"/>
		<polygon class="st4" points="1135.8,89.1 1120.3,89.1 1120.3,51.6 1128.1,42.5 1135.8,51.6 		"/>
		<polygon class="st5" points="1135.8,51.6 1128.1,42.5 1152.1,42.5 1160.4,51.4 		"/>
		<rect x="1125.8" y="58.7" class="st6" width="4.5" height="8.1"/>
		<rect x="1125.8" y="71.7" class="st6" width="4.5" height="8.1"/>
		<rect x="1140.6" y="58.7" class="st2" width="4.5" height="8.1"/>
		<rect x="1140.6" y="71.7" class="st2" width="4.5" height="8.1"/>
		<rect x="1151.1" y="58.7" class="st2" width="4.5" height="8.1"/>
		<rect x="1151.1" y="71.7" class="st2" width="4.5" height="8.1"/>
	</g>
	<path class="st2" d="M874.5,143.6c6.8,0,12.3,5.5,12.3,12.3h-37.4c0-2.1,0.8-4.1,2.1-5.7c3.2-3.7,8.8-4.2,12.5-1
		c2.3-3.5,6.2-5.6,10.3-5.6C874.4,143.6,874.5,143.6,874.5,143.6z"/>
	<path class="st2" d="M1005.2,102.7c3.9,0,7.1,3.2,7.1,7.2h-21.7c0-1.2,0.4-2.4,1.2-3.3c1.8-2.2,5.1-2.4,7.2-0.6
		C1000.4,103.9,1002.7,102.7,1005.2,102.7C1005.1,102.7,1005.1,102.7,1005.2,102.7z"/>
	<polygon class="st8" points="1200,127.7 1192,121.9 1169.4,138.3 1169.4,171.2 1200,171.2 	"/>
	<g>
		<polygon class="st2" points="1200,140.9 1177.4,124.6 1154.8,140.9 1154.8,173.9 1200,173.9 		"/>
		<rect x="1176.9" y="110" class="st3" width="1" height="15"/>
		<path class="st3" d="M1169.7,112l0,4.9c0,0,2.5,0.2,2.9-1c0,0,0.4-1.2-0.4-1.7c0,0-2.1-1.6-2.1-1.8S1169.7,112,1169.7,112"/>
		<path class="st2" d="M1172.7,114.8c0,0,0.3,1.8-3.1,1.7h-2.5l0,0h-2.6l1.7,1.6l-1.6,1.7h4.8l0,0c0,0,2.6,0.2,3.1-1
			c0,0,0.2-0.2,0.2-0.7C1172.8,117.7,1172.8,115,1172.7,114.8"/>
		<path class="st2" d="M1176.9,110h-4c0,0-3.4,0.1-3.2,2.3c0,0,0.3,1,1.7,1.4c0,0,0.5,0.2,0.8,0.4c0,0,0.2-0.7,1.3-0.6
			c1.1,0,3.5,0,3.5,0V110z"/>
	</g>
	<path class="st3" d="M1200,162.3c-2.3-0.7-4.8-1.1-7.2-1.1c-4.3,0-8.5,1.1-12.1,3.3c-11.5-24.1-40.5-34.3-64.6-22.7
		c-16.8,8-27.5,25-27.5,43.6H1200V162.3z"/>
	<path class="st9" d="M1103.6,73.9l1.5,15.1v0.1c0.1,1.4-0.9,2.6-2.2,2.8l-14.3,1.8l-0.7-4l14-3l-2.2,2.9l-1.5-15.1L1103.6,73.9z"/>
	<circle class="st5" cx="1070.3" cy="163.4" r="22.1"/>
	
		<rect x="1057.2" y="134.5" transform="matrix(0.9771 -0.2129 0.2129 0.9771 -5.9298 229.1417)" class="st9" width="7.9" height="15.3"/>
	<path d="M1066.1,145.1l4.8,4.7l-22.7,10.6c-0.8-1.5,3-5,7.3-10.1c0.9-1,1.8-2.2,2.7-3.3C1058.2,147,1061.5,150.3,1066.1,145.1z"/>
	<polygon class="st2" points="1061.1,154.4 1062.5,153.8 1059.9,151.8 1058.6,152.5 	"/>
	<polygon class="st2" points="1059.1,155.4 1060.5,154.8 1057.9,152.8 1056.6,153.4 	"/>
	<polygon class="st2" points="1057.1,156.3 1058.5,155.7 1055.9,153.7 1054.6,154.3 	"/>
	<path class="st7" d="M1071,149.8c0,0,1.5,0.4,1.9,1.4l-24,11.2c0,0-0.9-0.4-0.5-2L1071,149.8z"/>
	
		<rect x="1027.1" y="145.3" transform="matrix(0.6112 -0.7915 0.7915 0.6112 284.1763 877.0542)" class="st9" width="15.3" height="7.9"/>
	<path d="M1036.7,149.5l-0.5,6.6l-22.7-10.6c0.6-1.5,5.8-1,12.4-0.9c1.4,0,2.8,0,4.3,0C1030.2,144.6,1029.8,149.3,1036.7,149.5z"/>
	<polygon class="st2" points="1026.3,151.7 1027.7,152.3 1027.6,149.1 1026.2,148.4 	"/>
	<polygon class="st2" points="1024.4,150.7 1025.7,151.4 1025.6,148.1 1024.2,147.5 	"/>
	<polygon class="st2" points="1022.3,149.8 1023.7,150.4 1023.6,147.2 1022.2,146.6 	"/>
	<path class="st5" d="M1036.2,156.2c0.3,0.7,0.4,1.5,0.2,2.3l-24-11.2c0,0-0.2-1,1.2-1.7L1036.2,156.2z"/>
	<path class="st10" d="M1080.5,84.5h0.1H1080.5z"/>
	<path class="st9" d="M1087.9,89.7c0,0-9.9,2.5-10.2,3.8c-0.3,1.3,10.9,0.2,10.9,0.2"/>
	<path class="st11" d="M1088.7,47.2L1088.7,47.2c3.5-0.4,6.6,2.1,7,5.5l0.2,1.6c0.4,3.5-2.1,6.6-5.5,7l0,0c-3.5,0.4-6.6-2.1-7-5.5
		l-0.2-1.6C1082.8,50.8,1085.3,47.6,1088.7,47.2z"/>
	<path class="st9" d="M1087.1,52.2c0,0-1.4,3.4-3,3.4c0.3,2.7,1.1,4.7,3,5.6c1.2,0.6,2.6,0.7,3.9,0.1c2.6-1,3.3-3.9,3-6.8
		C1090.7,54.7,1087.1,52.2,1087.1,52.2z"/>
	
		<ellipse transform="matrix(0.9935 -0.1141 0.1141 0.9935 0.5726 124.2831)" class="st12" cx="1086.3" cy="57.1" rx="0.4" ry="0.6"/>
	
		<ellipse transform="matrix(0.9935 -0.1141 0.1141 0.9935 0.6502 124.7354)" class="st12" cx="1090.3" cy="56.7" rx="0.4" ry="0.6"/>
	<path class="st9" d="M1093.9,54.5c0,0.8,0,1.5-0.1,2.1c0.1,0,0.2,0,0.3,0c0.6-0.1,1-0.6,0.9-1.2C1095,54.9,1094.4,54.4,1093.9,54.5
		L1093.9,54.5L1093.9,54.5z"/>
	<path class="st9" d="M1082.9,74.5l-1.7,14.6v0.1c-0.1,1.2-1,2.1-2.2,2.2l-16.7,2.2l-0.7-4l16.5-3.5l-2.2,2.3l1.7-14.7L1082.9,74.5z
		"/>
	<polygon class="st5" points="1104.9,75.6 1104.8,75.5 1104.5,74.3 1104.3,73.2 1103.9,72.2 1103.7,71.2 1103.3,69.5 1102.6,68.6 
		1101.8,67.8 1100.9,67.2 1099.8,66.8 1098.8,66.3 1097.7,65.9 1096.5,65.6 1095.4,65.4 1094.3,65.2 1093.1,65.1 1092,65 
		1090.7,65.1 1089.5,65.1 1088.3,65.1 1087,65.3 1085.8,65.5 1084.6,65.8 1083.5,66.2 1082.3,66.6 1081.2,67.1 1080.2,67.8 
		1079.3,68.6 1078.4,69.5 1077.8,70.6 1077.3,71.7 1077,72.9 1076.8,74.1 1076.7,75.4 1077.8,75.5 1079,75.8 1080.1,76 1081.2,76.2 
		1081.1,77.5 1081,78.8 1081,80 1080.9,81.3 1080.9,82.5 1080.8,83.8 1080.8,85 1080.9,86.3 1082,86.5 1083.2,86.7 1084.3,86.7 
		1085.5,86.9 1086.7,87 1087.9,87 1089.1,87.1 1090.3,87.1 1091.4,87.1 1092.6,87.1 1093.8,87 1095,86.9 1096.2,86.7 1097.4,86.6 
		1098.6,86.3 1098.5,85 1098.4,83.8 1098.4,82.5 1098.2,81.2 1098.2,79.9 1098.2,78.7 1098.1,77.4 1098.1,76.1 1099.2,76.1 
		1100.3,76 1101.5,75.9 1102.6,75.8 1103.7,75.8 	"/>
	<path class="st13" d="M1051.4,144.5l-6.9-36.4c-0.8-4.1,1.9-8.1,6-8.9c0.5-0.1,0.9-0.1,1.4-0.1h24.9v15.2h-15.7l5.2,27.3
		L1051.4,144.5z"/>
	<rect x="1067.2" y="93.9" class="st3" width="26.8" height="1.5"/>
	<line class="st14" x1="1081.3" y1="73.3" x2="1081.2" y2="76.3"/>
	<polygon class="st3" points="1085.1,95.4 1059,95.4 1052.7,78.1 1078.7,78.1 	"/>
	<polygon class="st3" points="1085.1,95.4 1059,95.4 1052.7,78.1 1078.7,78.1 	"/>
	<circle class="st11" cx="1094.6" cy="43.1" r="3.8"/>
	<path class="st3" d="M1060.3,114.1c0.4,19,16.1,34.1,35.1,33.7c18.4-0.4,33.3-15.2,33.7-33.7H1060.3"/>
	<path class="st5" d="M1086.9,99.1h-24.9c-2.3,0-4.5,1.1-5.9,2.9l-29,36.4l11.9,9.5l26.7-33.5h21.1l0,0c8.5,0.1,15.5-6.7,15.6-15.2
		L1086.9,99.1z"/>
	<g>
		<defs>
			<path id="SVGID_2_" d="M1086.9,99.1h-24.9c-2.3,0-4.5,1.1-5.9,2.9l-29,36.4l11.9,9.5l26.7-33.5h21.1l0,0
				c8.5,0.1,15.5-6.7,15.6-15.2L1086.9,99.1z"/>
		</defs>
		<clipPath id="SVGID_3_">
			<use xlink:href="#SVGID_2_"  style="overflow:visible;"/>
		</clipPath>
		<g class="st15">
			<path class="st16" d="M1051,141.2c0,0-4.6-4.7-3.7-9.1c0.9-4.4,10.4,1,10.4,1"/>
			<path class="st16" d="M1038,118.5c0,0,4,7,2.5,10.3c-1.5,3.3-8.9-4.7-8.9-4.7"/>
			<path class="st16" d="M1075.7,118.4c0,0-3.8-15.2-16.7-19.6"/>
			<path class="st16" d="M1069.6,93.8c0,0,11.7,12.8,14.9,11.8c3.2-1.1-4.9-8.9-3.9-9.7c0.7-0.6,8.9,7.5,10.7,6.3
				c1.9-1.2-8-15.1-8-15.1"/>
			<path class="st16" d="M1066.1,115.7c0,0-9.9-8.5-12.5-6.7s4.2,6.7,3.4,7.6c-0.6,0.7-7.5-4.5-9-2.9s10.2,15.3,10.2,15.3"/>
		</g>
	</g>
	<path class="st5" d="M1048.1,38.8h16.9c4.4,0.1,8,3.8,7.8,8.2c-0.1,4.2-3.4,7.6-7.6,7.8l0,0l-3.6,3.6l-3.6-3.6h-9.9
		c-4.4-0.2-7.9-4-7.7-8.4C1040.5,42.3,1043.9,38.9,1048.1,38.8L1048.1,38.8z"/>
</g>
<g>
	<line class="st17" x1="1156.4" y1="196.6" x2="1156.5" y2="189.1"/>
	<path class="st5" d="M1148.8,178.7c4.6-9.7-2.2-20.6,7.9-20.6c10.4,0,2.6,11.4,7,19.9c4.2,8.1-1.6,11.5-7.1,11.5
		C1151.1,189.5,1146,184.9,1148.8,178.7z"/>
	<path class="st5" d="M1148.8,178.7c4.6-9.7-2.2-20.6,7.9-20.6c10.4,0,2.6,11.4,7,19.9c4.2,8.1-1.6,11.5-7.1,11.5
		C1151.1,189.5,1146,184.9,1148.8,178.7z"/>
	<g>
		<defs>
			<path id="SVGID_4_" d="M1148.8,178.7c4.6-9.7-2.2-20.6,7.9-20.6c10.4,0,2.6,11.4,7,19.9c4.2,8.1-1.6,11.5-7.1,11.5
				C1151.1,189.5,1146,184.9,1148.8,178.7z"/>
		</defs>
		<use xlink:href="#SVGID_4_"  style="overflow:visible;fill:#9781FF;"/>
		<clipPath id="SVGID_5_">
			<use xlink:href="#SVGID_4_"  style="overflow:visible;"/>
		</clipPath>
		<g class="st18">
			<line class="st17" x1="1156.4" y1="191" x2="1156.8" y2="157.9"/>
			<line class="st17" x1="1149.7" y1="169.9" x2="1156.6" y2="178.4"/>
			<line class="st17" x1="1163.8" y1="175.1" x2="1156.6" y2="182.8"/>
			<line class="st17" x1="1156.7" y1="168.9" x2="1164.2" y2="162"/>
		</g>
	</g>
</g>
<g>
	<line class="st17" x1="1133.8" y1="196.6" x2="1133.9" y2="189.1"/>
	<path class="st5" d="M1126.3,178.7c4.6-9.7-2.2-20.6,7.9-20.6c10.4,0,2.6,11.4,7,19.9c4.2,8.1-1.6,11.5-7.1,11.5
		C1128.5,189.5,1123.4,184.9,1126.3,178.7z"/>
	<path class="st5" d="M1126.3,178.7c4.6-9.7-2.2-20.6,7.9-20.6c10.4,0,2.6,11.4,7,19.9c4.2,8.1-1.6,11.5-7.1,11.5
		C1128.5,189.5,1123.4,184.9,1126.3,178.7z"/>
	<g>
		<defs>
			<path id="SVGID_6_" d="M1126.3,178.7c4.6-9.7-2.2-20.6,7.9-20.6c10.4,0,2.6,11.4,7,19.9c4.2,8.1-1.6,11.5-7.1,11.5
				C1128.5,189.5,1123.4,184.9,1126.3,178.7z"/>
		</defs>
		<use xlink:href="#SVGID_6_"  style="overflow:visible;fill:#9781FF;"/>
		<clipPath id="SVGID_7_">
			<use xlink:href="#SVGID_6_"  style="overflow:visible;"/>
		</clipPath>
		<g class="st19">
			<line class="st17" x1="1133.9" y1="191" x2="1134.2" y2="157.9"/>
			<line class="st17" x1="1127.2" y1="169.9" x2="1134" y2="178.4"/>
			<line class="st17" x1="1141.2" y1="175.1" x2="1134" y2="182.8"/>
			<line class="st17" x1="1134.1" y1="168.9" x2="1141.6" y2="162"/>
		</g>
	</g>
</g>
</svg>
