<?xml version="1.0" encoding="UTF-8"?>
<svg width="521px" height="277px" viewBox="0 0 521 277" version="1.1" xmlns="http://www.w3.org/2000/svg" xmlns:xlink="http://www.w3.org/1999/xlink">
    <!-- Generator: sketchtool 61 (101010) - https://sketch.com -->
    <title>207DE961-3F52-4BC5-A88D-22075086D5B2</title>
    <desc>Created with sketchtool.</desc>
    <defs>
        <linearGradient x1="50%" y1="0%" x2="50%" y2="100%" id="linearGradient-1">
            <stop stop-color="#FFFFFF" stop-opacity="0.572497815" offset="0%"></stop>
            <stop stop-color="#9284F6" stop-opacity="0.597574301" offset="100%"></stop>
        </linearGradient>
        <path d="M57.83085,0.2814 C54.03405,0.2814 50.4028,2.09685 48.0921,5.068 L48.0921,5.068 L0.22225,65.1525 L19.8653,80.8339 L63.93835,25.53635 L98.76755,25.53635 C112.79835,25.70155 124.3529,14.4767 124.5181,0.44625 L124.5181,0.44625 L98.93275,0.2814" id="path-2"></path>
        <path d="M57.83085,0.2814 C54.03405,0.2814 50.4028,2.09685 48.0921,5.068 L48.0921,5.068 L0.22225,65.1525 L19.8653,80.8339 L63.93835,25.53635 L98.76755,25.53635 C112.79835,25.70155 124.3529,14.4767 124.5181,0.44625 L124.5181,0.44625 L98.93275,0.2814" id="path-4"></path>
        <path d="M57.83085,0.2814 C54.03405,0.2814 50.4028,2.09685 48.0921,5.068 L48.0921,5.068 L0.22225,65.1525 L19.8653,80.8339 L63.93835,25.53635 L98.76755,25.53635 C112.79835,25.70155 124.3529,14.4767 124.5181,0.44625 L124.5181,0.44625 L98.93275,0.2814" id="path-6"></path>
        <path d="M57.83085,0.2814 C54.03405,0.2814 50.4028,2.09685 48.0921,5.068 L48.0921,5.068 L0.22225,65.1525 L19.8653,80.8339 L63.93835,25.53635 L98.76755,25.53635 C112.79835,25.70155 124.3529,14.4767 124.5181,0.44625 L124.5181,0.44625 L98.93275,0.2814" id="path-8"></path>
        <path d="M57.83085,0.2814 C54.03405,0.2814 50.4028,2.09685 48.0921,5.068 L48.0921,5.068 L0.22225,65.1525 L19.8653,80.8339 L63.93835,25.53635 L98.76755,25.53635 C112.79835,25.70155 124.3529,14.4767 124.5181,0.44625 L124.5181,0.44625 L98.93275,0.2814" id="path-10"></path>
    </defs>
    <g id="Page-1" stroke="none" stroke-width="1" fill="none" fill-rule="evenodd">
        <g id="Collect-home" transform="translate(-658.000000, -364.000000)">
            <g id="Home_Image" transform="translate(658.000000, 364.000000)">
                <g id="Group-3" transform="translate(0.000000, 123.207700)" fill="url(#linearGradient-1)">
                    <path d="M181.244,69.776 C135.0251,30.3247 65.6971,35.7721 26.2458,81.991 L26.2458,81.991 C9.4087,101.9641 0,127.2194 0,153.3 L0,153.3 L463.839549,153.3 C464.00445,68.9507 395.6666,0.44765 311.31695,0.28245 L311.31695,0.28245 C310.65685,0.28245 309.99605,0.28245 309.3363,0.11725 L309.3363,0.11725 C257.67035,0.28245 209.47045,26.36305 181.244,69.776" id="Fill-1"></path>
                </g>
                <g id="Group-64" transform="translate(154.000000, 0.007700)">
                    <polygon id="Fill-4" fill="#180D3D" points="305.2175 77.0987 345.82415 77.0987 345.82415 15.0332 305.2175 15.0332"></polygon>
                    <polygon id="Fill-6" fill="#C0BCF9" points="305.21736 77.263725 279.79686 77.263725 279.79686 15.363425 292.50711 0.342475 305.21736 15.363425"></polygon>
                    <polygon id="Fill-7" fill="#9284F6" points="305.21736 15.36346 292.50711 0.34251 332.12326 0.34251 345.82401 15.03341"></polygon>
                    <polygon id="Fill-8" fill="#110623" points="288.87565 40.4537 296.3037 40.4537 296.3037 27.083 288.87565 27.083"></polygon>
                    <polygon id="Fill-9" fill="#110623" points="288.87565 61.9122 296.3037 61.9122 296.3037 48.54185 288.87565 48.54185"></polygon>
                    <polygon id="Fill-10" fill="#FFFFFF" points="313.14045 40.4537 320.5685 40.4537 320.5685 27.083 313.14045 27.083"></polygon>
                    <polygon id="Fill-11" fill="#FFFFFF" points="313.14045 61.9122 320.5685 61.9122 320.5685 48.54185 313.14045 48.54185"></polygon>
                    <polygon id="Fill-12" fill="#FFFFFF" points="330.47245 40.4537 337.9005 40.4537 337.9005 27.083 330.47245 27.083"></polygon>
                    <polygon id="Fill-13" fill="#FFFFFF" points="330.47245 61.9122 337.9005 61.9122 337.9005 48.54185 330.47245 48.54185"></polygon>
                    <polygon id="Fill-14" fill="#9284F6" points="214.26545 274.84905 345.82415 274.84905 345.82415 77.26355 214.26545 77.26355"></polygon>
                    <polygon id="Fill-15" fill="#7D75F3" points="280.12705 274.84905 345.82415 274.84905 345.82415 77.26355 280.12705 77.26355"></polygon>
                    <polygon id="Fill-16" fill="#180D3D" points="239.8508 115.5595 280.45745 115.5595 280.45745 53.494 239.8508 53.494"></polygon>
                    <polygon id="Fill-17" fill="#C0BCF9" points="239.85073 115.72442 214.26538 115.72442 214.26538 53.82412 227.14048 38.80317 239.85073 53.82412"></polygon>
                    <polygon id="Fill-18" fill="#9284F6" points="239.85073 53.824155 227.14048 38.803205 266.75663 38.803205 280.45738 53.494105"></polygon>
                    <polygon id="Fill-19" fill="#110623" points="223.3441 78.9145 230.77215 78.9145 230.77215 65.5438 223.3441 65.5438"></polygon>
                    <polygon id="Fill-20" fill="#110623" points="223.3441 100.373 230.77215 100.373 230.77215 87.00265 223.3441 87.00265"></polygon>
                    <polygon id="Fill-21" fill="#FFFFFF" points="247.77375 78.9145 255.2018 78.9145 255.2018 65.5438 247.77375 65.5438"></polygon>
                    <polygon id="Fill-22" fill="#FFFFFF" points="247.77375 100.373 255.2018 100.373 255.2018 87.00265 247.77375 87.00265"></polygon>
                    <polygon id="Fill-23" fill="#FFFFFF" points="265.1061 78.9145 272.53415 78.9145 272.53415 65.5438 265.1061 65.5438"></polygon>
                    <polygon id="Fill-24" fill="#FFFFFF" points="265.1061 100.373 272.53415 100.373 272.53415 87.00265 265.1061 87.00265"></polygon>
                    <path d="M24.27264,138.173455 C30.71019,138.173455 35.99239,143.455655 35.99239,150.058405 L0.17269,150.058405 C0.17269,148.077405 0.83314,146.096755 2.15369,144.611355 C5.12484,140.979755 10.57189,140.649705 14.03864,143.620505 C16.34934,140.154455 20.14579,138.173455 24.27264,138.173455 C24.10744,138.173455 24.10744,138.173455 24.27264,138.173455" id="Fill-25" fill="#FFFFFF"></path>
                    <polygon id="Fill-26" fill="#FFFFFF" opacity="0.603213356" points="345.823835 179.44031 332.618685 169.86641 295.313235 196.93751 295.313235 251.24456 345.823835 251.24456"></polygon>
                    <polygon id="Fill-27" fill="#FFFFFF" points="345.823835 201.22935 308.518735 174.3231 271.213635 201.22935 271.213635 255.7016 345.823835 255.7016"></polygon>
                    <polygon id="Fill-28" fill="#180D3D" points="307.6934 174.98355 309.344 174.98355 309.344 150.2235 307.6934 150.2235"></polygon>
                    <path d="M295.808345,153.52477 L295.808345,161.61292 C295.808345,161.61292 299.935195,161.94332 300.595295,159.96267 C300.595295,159.96267 301.255745,157.98167 299.935195,157.15637 C299.935195,157.15637 296.468795,154.51527 296.468795,154.18522 C296.468795,153.85482 295.808345,153.52477 295.808345,153.52477" id="Fill-29" fill="#180D3D"></path>
                    <path d="M300.76032,158.146695 C300.76032,158.146695 301.25592,161.117845 295.64332,160.952995 L291.51647,160.952995 L287.22512,160.952995 L290.03107,163.593745 L287.38997,166.400045 L295.31327,166.400045 C295.31327,166.400045 299.60497,166.730095 300.43027,164.749445 C300.43027,164.749445 300.76032,164.419045 300.76032,163.593745 C300.92552,162.933645 300.92552,158.476745 300.76032,158.146695" id="Fill-30" fill="#FFFFFF"></path>
                    <path d="M307.69333,150.2235 L301.09058,150.2235 C301.09058,150.2235 295.47833,150.3887 295.80838,154.01995 C295.80838,154.01995 296.30363,155.67055 298.61468,156.331 C298.61468,156.331 299.43998,156.66105 299.93523,156.9911 C299.93523,156.9911 300.26528,155.83575 302.08108,156.00095 L307.85853,156.00095 L307.85853,150.2235 L307.69333,150.2235 Z" id="Fill-31" fill="#FFFFFF"></path>
                    <path d="M313.281045,240.679284 C293.855345,201.899984 246.646295,185.675734 207.332545,204.598484 C179.600995,217.803984 161.938945,245.865234 161.938945,276.567934 L345.823695,276.567934 L345.823695,276.010384 L365.158395,276.010384 L366.812495,276.010384 L366.812495,267.902634 C366.872695,267.096234 366.907695,266.283184 366.907695,265.461384 C366.907695,247.489934 352.338945,232.920834 334.367145,232.920834 C326.322045,232.920834 318.960145,235.841584 313.281045,240.679284 Z" id="Fill-32" fill="#180D3D"></path>
                    <rect id="Rectangle" fill="#180D3D" x="257.6" y="265.3" width="109.2" height="11.2"></rect>
                    <path d="M186.69889,90.634145 L189.17479,115.559395 L189.17479,115.724595 C189.33999,118.035295 187.68939,120.016295 185.54354,120.346345 L161.93884,123.317495 L160.78349,116.714745 L183.89294,111.762945 L180.26134,116.549545 L177.78544,91.624645 L186.69889,90.634145 Z" id="Fill-33" fill="#F2A99A"></path>
                    <path d="M131.7316,201.88952 C151.87865,201.88952 168.2114,218.22227 168.2114,238.36967 C168.2114,258.51672 151.87865,274.84947 131.7316,274.84947 C111.58455,274.84947 95.2518,258.51672 95.2518,238.36967 C95.2518,218.22227 111.58455,201.88952 131.7316,201.88952" id="Fill-34" fill="#7D75F3"></path>
                    <polygon id="Fill-35" fill="#F2A99A" points="107.623985 192.288775 120.365735 189.512575 125.742435 214.189675 113.000685 216.965875"></polygon>
                    <path d="M124.79859,208.162185 L132.72189,215.920285 L95.25159,233.417485 C93.93104,230.941235 100.20374,225.164135 107.30174,216.745585 C108.78749,215.094985 110.27289,213.113985 111.75829,211.298185 C111.75829,211.298185 117.20569,216.745585 124.79859,208.162185" id="Fill-36" fill="#000000"></path>
                    <polygon id="Fill-37" fill="#FFFFFF" points="116.54524 223.51329 118.85629 222.52279 114.56459 219.22159 112.41839 220.37729"></polygon>
                    <polygon id="Fill-38" fill="#FFFFFF" points="113.2439 225.163995 115.55495 224.173495 111.26325 220.872295 109.11705 221.862795"></polygon>
                    <polygon id="Fill-39" fill="#FFFFFF" points="109.94256 226.64964 112.25361 225.65914 107.96191 222.35794 105.81571 223.34844"></polygon>
                    <path d="M132.886985,215.920285 C132.886985,215.920285 135.362885,216.580385 136.023335,218.231335 L96.407185,236.718685 C96.407185,236.718685 94.921435,236.058585 95.581885,233.417485 L132.886985,215.920285 Z" id="Fill-40" fill="#7D75F3"></path>
                    <polygon id="Fill-41" fill="#F2A99A" points="60.166085 221.057165 75.602135 201.067615 85.923635 209.037815 70.487585 229.027365"></polygon>
                    <path d="M76.268745,215.425035 L75.443445,226.319485 L37.973145,208.822285 C38.963645,206.346385 47.547045,207.171685 58.441495,207.336885 L65.539495,207.336885 C65.539495,207.336885 64.879395,215.094985 76.268745,215.425035" id="Fill-42" fill="#000000"></path>
                    <polygon id="Fill-43" fill="#FFFFFF" points="59.10191 219.0566 61.41261 220.0471 61.24776 214.7649 58.93671 213.60955"></polygon>
                    <polygon id="Fill-44" fill="#FFFFFF" points="55.965595 217.405895 58.111445 218.561245 57.946245 213.114195 55.635195 212.123695"></polygon>
                    <polygon id="Fill-45" fill="#FFFFFF" points="52.49916 215.920285 54.81021 216.910785 54.64501 211.628585 52.33396 210.638085"></polygon>
                    <path d="M75.44348,226.484545 C75.93873,227.639895 76.10358,228.960445 75.77353,230.281345 L36.15738,211.793645 C36.15738,211.793645 35.82733,210.143045 38.13803,208.987345 L75.44348,226.484545 Z" id="Fill-46" fill="#9284F6"></path>
                    <path d="M148.56835,108.13124 L148.73355,108.13124 L148.56835,108.13124 Z" id="Fill-47" fill="#EFA48B"></path>
                    <path d="M160.78342,116.71478 C160.78342,116.71478 144.44157,120.84163 143.94667,122.98748 C143.45142,125.13333 161.93912,123.31753 161.93912,123.31753" id="Fill-48" fill="#F2A99A"></path>
                    <path d="M162.103865,46.56113 L162.103865,46.56113 C167.881315,45.90103 172.998315,50.02753 173.658415,55.63978 L173.988465,58.28088 C174.648915,64.05833 170.522065,69.17533 164.909815,69.83578 C159.132365,70.49588 154.015365,66.36938 153.355265,60.75713 L153.025215,58.11603 C152.365115,52.50378 156.491615,47.22158 162.103865,46.56113" id="Fill-49" fill="#161719"></path>
                    <path d="M159.4628,54.814515 C159.4628,54.814515 157.15175,60.426765 154.51065,60.426765 C155.0059,64.883665 156.32645,68.184865 159.4628,69.670615 C161.44345,70.661115 163.7545,70.825965 165.90035,69.835465 C170.19205,68.184865 171.34775,63.397915 170.8525,58.610965 C165.4051,58.941365 159.4628,54.814515 159.4628,54.814515" id="Fill-50" fill="#F2A99A"></path>
                    <path d="M158.073545,61.86131 C158.435795,61.81966 158.780195,62.22636 158.842495,62.76991 C158.904795,63.31311 158.661895,63.78736 158.299645,63.82936 C157.937045,63.87066 157.592995,63.46396 157.530345,62.92041 C157.468045,62.37721 157.711295,61.90296 158.073545,61.86131" id="Fill-51" fill="#051835"></path>
                    <path d="M164.68606,61.198585 C165.04831,61.156935 165.39271,61.563635 165.45501,62.107185 C165.51731,62.650385 165.27441,63.124635 164.91216,63.166635 C164.54991,63.207935 164.20551,62.801235 164.14286,62.257685 C164.08056,61.714485 164.32381,61.240235 164.68606,61.198585" id="Fill-52" fill="#051835"></path>
                    <path d="M170.687475,58.611 C170.687475,59.93155 170.687475,61.08725 170.522275,62.0774 L171.017525,62.0774 C172.008025,61.91255 172.668475,61.08725 172.503275,60.09675 C172.502925,59.27145 171.512775,58.44615 170.687475,58.611" id="Fill-53" fill="#F2A99A"></path>
                    <path d="M152.530035,91.62447 L149.724085,115.72442 L149.724085,115.88962 C149.558885,117.87027 148.073135,119.35567 146.092485,119.52087 L118.526485,123.15247 L117.371135,116.54972 L144.607085,110.77227 L140.975835,114.56907 L143.781785,90.30392 L152.530035,91.62447 Z" id="Fill-54" fill="#F2A99A"></path>
                    <polygon id="Fill-55" fill="#9284F6" points="188.844845 93.44027 188.679995 93.27507 188.184745 91.29442 187.854345 89.47862 187.194245 87.82802 186.863845 86.17742 186.203745 83.37112 185.048395 81.88537 183.727845 80.56482 182.242095 79.57467 180.426645 78.91457 178.775695 78.08892 176.959895 77.42882 174.979245 76.93357 173.163445 76.60352 171.347645 76.27312 169.366995 76.10827 167.551195 75.94307 165.405345 76.10827 163.424345 76.10827 161.443695 76.10827 159.297845 76.43832 157.316845 76.76837 155.336195 77.26362 153.520395 77.92372 151.539745 78.58417 149.723945 79.40947 148.072995 80.56482 146.587595 81.88537 145.102195 83.37112 144.111695 85.18692 143.286395 87.00272 142.791145 88.98337 142.461095 90.96437 142.295545 93.11022 144.111695 93.27507 146.092345 93.77032 147.908145 94.10072 149.723945 94.43077 149.558745 96.57662 149.393545 98.72247 149.393545 100.70312 149.228695 102.84897 149.228695 104.82997 149.063495 106.97582 149.063495 108.95682 149.228695 111.10232 151.044495 111.43272 153.025145 111.76277 154.840945 111.76277 156.821595 112.09282 158.802595 112.25802 160.783245 112.25802 162.764245 112.42287 164.745245 112.42287 166.560695 112.42287 168.541345 112.42287 170.522345 112.25802 172.502995 112.09282 174.483995 111.76277 176.464645 111.59757 178.445645 111.10232 178.280445 108.95682 178.115595 106.97582 178.115595 104.82997 177.785195 102.68412 177.785195 100.53827 177.785195 98.55727 177.620345 96.41142 177.620345 94.26557 179.435795 94.26557 181.251945 94.10072 183.232595 93.93552 185.048395 93.77032 186.863845 93.77032"></polygon>
                    <path d="M100.53386,207.17165 L89.14416,147.08715 C87.82361,140.31955 92.28051,133.7168 99.04811,132.39625 C99.87341,132.23105 100.53386,132.23105 101.35916,132.23105 L142.46106,132.23105 L142.46106,157.3215 L116.54566,157.3215 L125.12871,202.3847 L100.53386,207.17165 Z" id="Fill-56" fill="#070707"></path>
                    <polygon id="Fill-57" fill="#180D3D" points="126.61425 126.12355 170.8525 126.12355 170.8525 123.64765 126.61425 123.64765"></polygon>
                    <line x1="149.88897" y1="89.643785" x2="149.72377" y2="94.595585" id="Stroke-58" stroke="#000000" stroke-width="0.52255"></line>
                    <polygon id="Fill-59" fill="#180D3D" points="156.16146 126.123585 113.07891 126.123585 102.67971 97.567085 145.59706 97.567085"></polygon>
                    <polygon id="Fill-60" fill="#180D3D" points="156.16146 126.123585 113.07891 126.123585 102.67971 97.567085 145.59706 97.567085"></polygon>
                    <path d="M171.84286,33.5209 C175.30681,33.5209 178.11556,36.32895 178.11556,39.79325 C178.11556,43.25755 175.30681,46.06595 171.84286,46.06595 C168.37856,46.06595 165.57016,43.25755 165.57016,39.79325 C165.57016,36.32895 168.37856,33.5209 171.84286,33.5209" id="Fill-61" fill="#161719"></path>
                    <path d="M115.224865,156.99124 C115.884965,188.35404 141.800715,213.27929 173.163515,212.61884 C203.535815,211.95874 228.131015,187.52874 228.791115,156.99124 L115.224865,156.99124" id="Fill-62" fill="#180D3D"></path>
                    <path d="M159.132715,132.231155 L118.030815,132.231155 C114.234365,132.231155 110.602765,134.046605 108.291715,137.018105 L60.422215,197.102605 L80.065615,212.784005 L124.138315,157.486455 L158.967515,157.486455 C172.998315,157.651305 184.552865,146.426805 184.718065,132.396355 L159.132715,132.231155 Z" id="Fill-63" fill="#9284F6"></path>
                </g>
                <g id="Group-80" transform="translate(214.200000, 131.957700)">
                    <g id="Group-67">
                        <mask id="mask-3" fill="white">
                            <use xlink:href="#path-2"></use>
                        </mask>
                        <g id="Clip-66"></g>
                        <path d="M39.67348,69.774425 C39.67348,69.774425 32.08058,62.016325 33.56598,54.753475 C35.05173,47.490275 50.73313,56.404075 50.73313,56.404075" id="Stroke-65" stroke="#FFFFFF" stroke-width="0.87815" stroke-linecap="round" mask="url(#mask-3)"></path>
                    </g>
                    <g id="Group-70">
                        <mask id="mask-5" fill="white">
                            <use xlink:href="#path-4"></use>
                        </mask>
                        <g id="Clip-69"></g>
                        <path d="M18.214735,32.304265 C18.214735,32.304265 24.817485,43.858815 22.341585,49.306215 C19.865335,54.753265 7.650335,41.548115 7.650335,41.548115" id="Stroke-68" stroke="#FFFFFF" stroke-width="0.87815" stroke-linecap="round" mask="url(#mask-5)"></path>
                    </g>
                    <g id="Group-73">
                        <mask id="mask-7" fill="white">
                            <use xlink:href="#path-6"></use>
                        </mask>
                        <g id="Clip-72"></g>
                        <path d="M80.445085,32.13917 C80.445085,32.13917 74.172385,7.04872 52.879085,-0.21413" id="Stroke-71" stroke="#FFFFFF" stroke-width="0.87815" stroke-linecap="round" mask="url(#mask-7)"></path>
                    </g>
                    <g id="Group-76">
                        <mask id="mask-9" fill="white">
                            <use xlink:href="#path-8"></use>
                        </mask>
                        <g id="Clip-75"></g>
                        <path d="M70.376005,-8.46748 C70.376005,-8.46748 89.688655,12.66132 94.971205,11.01037 C100.253055,9.19457 86.882705,-3.68053 88.533305,-5.00108 C89.688655,-5.99158 103.224555,7.37912 106.195705,5.39812 C109.331705,3.41747 92.990205,-19.52713 92.990205,-19.52713" id="Stroke-74" stroke="#FFFFFF" stroke-width="0.87815" stroke-linecap="round" mask="url(#mask-9)"></path>
                    </g>
                    <g id="Group-79">
                        <mask id="mask-11" fill="white">
                            <use xlink:href="#path-10"></use>
                        </mask>
                        <g id="Clip-78"></g>
                        <path d="M64.59859,27.682305 C64.59859,27.682305 48.25709,13.651505 43.96504,16.622655 C39.67334,19.594155 50.89784,27.682305 49.57764,29.168055 C48.58714,30.323405 37.19744,21.739655 34.72154,24.380755 C32.24529,27.021855 51.55829,49.636405 51.55829,49.636405" id="Stroke-77" stroke="#FFFFFF" stroke-width="0.87815" stroke-linecap="round" mask="url(#mask-11)"></path>
                    </g>
                </g>
                <path d="M249.08653,32.70316 L276.98293,32.70316 C284.24578,32.86836 290.18843,38.97586 289.85838,46.23871 C289.69318,53.17151 284.24578,58.78376 277.31298,59.11381 L271.37068,65.05646 L265.42838,59.11381 L249.08653,59.11381 C241.82368,58.78376 236.04623,52.51141 236.37663,45.24821 C236.54148,38.48061 242.15373,32.86836 249.08653,32.70316" id="Fill-81" fill="#9284F6"></path>
            </g>
        </g>
    </g>
</svg>