<?xml version="1.0" encoding="UTF-8"?>
<svg width="22px" height="22px" viewBox="0 0 22 22" version="1.1" 
    xmlns="http://www.w3.org/2000/svg" 
    xmlns:xlink="http://www.w3.org/1999/xlink">
    <!-- Generator: sketchtool 61 (101010) - https://sketch.com -->
    <title>582CC123-211F-47A9-88B4-2F4CE4DA632F</title>
    <desc>Created with sketchtool.</desc>
    <g id="Page-1" stroke="none" stroke-width="1" fill="none" fill-rule="evenodd">
        <g id="Collect" transform="translate(-675.000000, -491.000000)">
            <g id="Icon" transform="translate(675.040000, 490.641600)">
                <rect id="Rectangle" fill="#19D1CF" x="3.1135104" y="2.6537472" width="10.378368" height="2.0756736" rx="1.0378368"></rect>
                <rect id="Rectangle-Copy-2" fill="#19D1CF" x="3.1135104" y="5.7672576" width="8.3026944" height="2.0756736" rx="1.0378368"></rect>
                <g id="Group-11">
                    <g id="Group-16" transform="translate(0.000000, 0.578074)">
                        <path d="M16.8274859,21.348303 L2.27623141,21.348303 C1.0191931,21.348303 0,20.3291099 0,19.0720716 L0,2.27623141 C0,1.0191931 1.0191931,0 2.27623141,0 L14.5512545,0 C15.8082928,0 16.8274859,1.0191931 16.8274859,2.27623141 L16.8274859,21.348303 Z" id="Fill-1" fill="#C2BEFC"></path>
                        <path d="M4.77202384,15.2760921 C4.77202384,14.1908449 5.65157392,13.3112948 6.73682118,13.3112948 L19.6347124,13.3112948 C20.7197085,13.3112948 21.5995097,14.1908449 21.5995097,15.2760921 L21.5995097,19.3835056 C21.5995097,20.4687529 20.7197085,21.348303 19.6347124,21.348303 L3.04250991,21.348303 C2.9238646,21.348303 2.80680469,21.3415106 2.69169786,21.3282934 C3.86581917,21.1724464 4.77197361,20.1373361 4.77197361,18.8834406 L4.77202384,15.2760921 Z" id="Combined-Shape" fill="#1E2533"></path>
                    </g>
                </g>
            </g>
        </g>
    </g>
</svg>