<?xml version="1.0" encoding="UTF-8"?>
<svg width="238px" height="45px" viewBox="0 0 238 45" version="1.1" xmlns="http://www.w3.org/2000/svg" xmlns:xlink="http://www.w3.org/1999/xlink">
    <!-- Generator: sketchtool 61 (101010) - https://sketch.com -->
    <title>BE5373B3-2C6E-474E-B223-9AB2901610B4</title>
    <desc>Created with sketchtool.</desc>
    <g id="Page-1" stroke="none" stroke-width="1" fill="none" fill-rule="evenodd">
        <g id="Collect" transform="translate(-57.000000, -31.000000)">
            <g id="Logo" transform="translate(56.999884, 30.999423)">
                <path d="M64.1051567,28.9832953 C67.005684,28.9832953 69.3635319,27.4488228 70.2430466,24.7541394 L67.2302409,24.7541394 C66.6127093,26.0266288 65.4899246,26.6441604 64.0864437,26.6441604 C61.803448,26.6441604 60.1754101,24.9599833 60.1754101,22.3214392 C60.1754101,19.6641819 61.803448,17.9987179 64.0864437,17.9987179 C65.4899246,17.9987179 66.6127093,18.6162495 67.2302409,19.8700258 L70.2430466,19.8700258 C69.3635319,17.1940555 67.005684,15.64087 64.1051567,15.64087 C60.3438279,15.64087 57.4807268,18.4104056 57.4807268,22.3214392 C57.4807268,26.2324727 60.3438279,28.9832953 64.1051567,28.9832953 Z M75.1084472,28.8710168 L75.1084472,23.1448146 C75.1084472,21.4793506 76.0253881,20.5811228 77.4475821,20.5811228 C78.8323499,20.5811228 79.7492908,21.4793506 79.7492908,23.1448146 L79.7492908,28.8710168 L82.3691218,28.8710168 L82.3691218,22.7892661 C82.3691218,19.926165 80.6662316,18.3542664 78.3270968,18.3542664 C76.9423289,18.3542664 75.782118,18.9156588 75.1084472,19.7951735 L75.1084472,15.0233383 L72.4886161,15.0233383 L72.4886161,28.8710168 L75.1084472,28.8710168 Z M88.8999864,29.0394345 C90.5467374,29.0394345 91.7256613,28.2534852 92.3431929,27.3552574 L92.3431929,28.8710168 L94.9817371,28.8710168 L94.9817371,18.503971 L92.3431929,18.503971 L92.3431929,19.9823043 C91.7256613,19.1215026 90.5841635,18.3355533 88.9186995,18.3355533 C86.2801553,18.3355533 84.1842905,20.4127051 84.1842905,23.6500678 C84.1842905,26.8874304 86.2801553,29.0394345 88.8999864,29.0394345 Z M89.5923703,26.7377258 C88.1888894,26.7377258 86.8602608,25.6149411 86.8602608,23.6500678 C86.8602608,21.6851945 88.1888894,20.637262 89.5923703,20.637262 C91.0332774,20.637262 92.3431929,21.7226206 92.3431929,23.6874939 C92.3431929,25.6523672 91.0332774,26.7377258 89.5923703,26.7377258 Z M100.16526,28.8710168 L100.16526,23.1448146 C100.16526,21.4980637 101.082201,20.637262 102.504395,20.637262 C103.889163,20.637262 104.806104,21.4980637 104.806104,23.1448146 L104.806104,28.8710168 L107.425935,28.8710168 L107.425935,23.1448146 C107.425935,21.4980637 108.342875,20.637262 109.746356,20.637262 C111.131124,20.637262 112.048065,21.4980637 112.048065,23.1448146 L112.048065,28.8710168 L114.667896,28.8710168 L114.667896,22.7892661 C114.667896,19.926165 112.908867,18.3542664 110.420027,18.3542664 C108.904268,18.3542664 107.538213,19.1589288 106.864542,20.3378528 C106.153445,19.0466503 104.824817,18.3542664 103.215492,18.3542664 C101.924289,18.3542664 100.820218,18.8969457 100.16526,19.7577473 L100.16526,18.503971 L97.5454289,18.503971 L97.5454289,28.8710168 L100.16526,28.8710168 Z M121.685301,29.0394345 C124.248993,29.0394345 125.970596,27.5236751 126.531988,25.6149411 L123.706313,25.6149411 C123.369478,26.307325 122.751946,26.8687174 121.629162,26.8687174 C120.319246,26.8687174 119.271314,26.0079157 119.140322,24.4734432 L126.719119,24.4734432 C126.775258,24.1366078 126.793971,23.7997724 126.793971,23.462937 C126.793971,20.3752789 124.679393,18.3355533 121.685301,18.3355533 C118.616356,18.3355533 116.483065,20.4127051 116.483065,23.6874939 C116.483065,26.9435697 118.672495,29.0394345 121.685301,29.0394345 Z M124.080575,22.7144138 L119.159035,22.7144138 C119.364879,21.2922198 120.356672,20.4875574 121.610448,20.4875574 C122.95779,20.4875574 124.043149,21.348359 124.080575,22.7144138 Z M131.322536,28.8710168 L131.322536,15.0233383 L128.702705,15.0233383 L128.702705,28.8710168 L131.322536,28.8710168 Z M138.433507,29.0394345 C140.997198,29.0394345 142.718802,27.5236751 143.280194,25.6149411 L140.454519,25.6149411 C140.117684,26.307325 139.500152,26.8687174 138.377367,26.8687174 C137.067452,26.8687174 136.019519,26.0079157 135.888528,24.4734432 L143.467325,24.4734432 C143.523464,24.1366078 143.542177,23.7997724 143.542177,23.462937 C143.542177,20.3752789 141.427599,18.3355533 138.433507,18.3355533 C135.364562,18.3355533 133.231271,20.4127051 133.231271,23.6874939 C133.231271,26.9435697 135.420701,29.0394345 138.433507,29.0394345 Z M140.828781,22.7144138 L135.907241,22.7144138 C136.113085,21.2922198 137.104878,20.4875574 138.358654,20.4875574 C139.705996,20.4875574 140.791354,21.348359 140.828781,22.7144138 Z M150.054329,29.0394345 C153.067134,29.0394345 155.462408,26.9435697 155.462408,23.6874939 C155.462408,20.4127051 153.123274,18.3355533 150.129181,18.3355533 C147.135088,18.3355533 144.795953,20.4127051 144.795953,23.6874939 C144.795953,26.9435697 147.060236,29.0394345 150.054329,29.0394345 Z M150.054329,26.7564389 C148.650848,26.7564389 147.453211,25.7459326 147.453211,23.6874939 C147.453211,21.6103422 148.706987,20.618549 150.091755,20.618549 C151.476523,20.618549 152.767725,21.6103422 152.767725,23.6874939 C152.767725,25.7459326 151.439096,26.7564389 150.054329,26.7564389 Z M160.009687,28.8710168 L160.009687,23.1448146 C160.009687,21.4793506 160.926627,20.5811228 162.348821,20.5811228 C163.733589,20.5811228 164.65053,21.4793506 164.65053,23.1448146 L164.65053,28.8710168 L167.270361,28.8710168 L167.270361,22.7892661 C167.270361,19.926165 165.548758,18.3542664 163.134771,18.3542664 C161.806142,18.3542664 160.683357,18.9156588 160.009687,19.7951735 L160.009687,18.503971 L157.389856,18.503971 L157.389856,28.8710168 L160.009687,28.8710168 Z" id="Chameleon" fill="#09090A" fill-rule="nonzero"></path>
                <path d="M180.218348,28.9832953 C183.137589,28.9832953 185.308306,27.5236751 186.24396,25.0535487 L184.709487,25.0535487 C183.979677,26.7564389 182.445205,27.8417975 180.218348,27.8417975 C177.355247,27.8417975 175.165817,25.7272195 175.165817,22.3214392 C175.165817,18.8969457 177.355247,16.7823678 180.218348,16.7823678 C182.445205,16.7823678 183.979677,17.8677264 184.709487,19.6080427 L186.24396,19.6080427 C185.308306,17.1004901 183.137589,15.64087 180.218348,15.64087 C176.588011,15.64087 173.818475,18.3916926 173.818475,22.3214392 C173.818475,26.2511857 176.588011,28.9832953 180.218348,28.9832953 Z M193.317504,29.0207214 C196.199318,29.0207214 198.4636,26.9997089 198.4636,23.7623462 C198.4636,20.5062705 196.236744,18.503971 193.35493,18.503971 C190.491829,18.503971 188.246259,20.5062705 188.246259,23.7623462 C188.246259,26.9997089 190.435689,29.0207214 193.317504,29.0207214 Z M193.317504,27.8792236 C191.371343,27.8792236 189.574888,26.5693081 189.574888,23.7623462 C189.574888,20.9553844 191.390056,19.6454689 193.336217,19.6454689 C195.282377,19.6454689 197.116259,20.9553844 197.116259,23.7623462 C197.116259,26.5693081 195.244951,27.8792236 193.317504,27.8792236 Z M202.16879,28.8710168 L202.16879,15.0233383 L200.858874,15.0233383 L200.858874,28.8710168 L202.16879,28.8710168 Z M206.454085,28.8710168 L206.454085,15.0233383 L205.14417,15.0233383 L205.14417,28.8710168 L206.454085,28.8710168 Z M213.845751,29.0207214 C216.409443,29.0207214 218.056194,27.5611013 218.524021,25.6336541 L217.139253,25.6336541 C216.764992,26.9997089 215.586068,27.9166498 213.845751,27.9166498 C211.937017,27.9166498 210.271553,26.6628735 210.159275,24.2675994 L218.636299,24.2675994 C218.673726,23.9120509 218.673726,23.6500678 218.673726,23.23838 C218.673726,20.637262 216.839844,18.503971 213.845751,18.503971 C210.907798,18.503971 208.830646,20.5062705 208.830646,23.7623462 C208.830646,26.9997089 210.945224,29.0207214 213.845751,29.0207214 Z M217.345097,23.2009539 L210.159275,23.2009539 C210.308979,20.8243928 211.937017,19.6267558 213.789612,19.6267558 C215.679633,19.6267558 217.401236,20.8243928 217.345097,23.2009539 Z M225.429147,29.0207214 C227.992839,29.0207214 229.658303,27.5798144 230.12613,25.5400887 L228.722649,25.5400887 C228.367101,27.0371351 227.15075,27.9166498 225.429147,27.9166498 C223.426848,27.9166498 221.79881,26.5318819 221.79881,23.7623462 C221.79881,20.9928105 223.426848,19.6267558 225.429147,19.6267558 C227.15075,19.6267558 228.385814,20.5249836 228.722649,21.9846037 L230.12613,21.9846037 C229.658303,19.8700258 227.992839,18.503971 225.429147,18.503971 C222.547333,18.503971 220.470181,20.5249836 220.470181,23.7623462 C220.470181,26.9997089 222.547333,29.0207214 225.429147,29.0207214 Z M237.049969,28.8710168 L237.049969,27.7482321 L235.852332,27.7482321 C234.673408,27.7482321 234.243007,27.3552574 234.243007,26.1014811 L234.243007,19.7577473 L237.049969,19.7577473 L237.049969,18.6536757 L234.243007,18.6536757 L234.243007,16.0899839 L232.914379,16.0899839 L232.914379,18.6536757 L231.492185,18.6536757 L231.492185,19.7577473 L232.914379,19.7577473 L232.914379,26.1014811 C232.914379,28.1412067 233.868746,28.8710168 235.646488,28.8710168 L237.049969,28.8710168 Z" id="Collect" fill="#09090A" fill-rule="nonzero"></path>
                <path d="M28.5993015,24.0472155 C28.5993015,28.5528705 24.9321765,32.2199955 20.4253665,32.2199955 C18.2839965,32.2199955 16.3378215,31.3860855 14.8802115,30.0335805 C16.8806715,36.2601855 21.9153165,41.1342855 28.2354765,42.9176055 C35.6332515,39.8441505 40.8515415,32.5433955 40.8515415,24.0472155 L28.5993015,24.0472155 Z" id="Fill-2" fill="#9486FC"></path>
                <path d="M24.956085,4.12797 C23.498475,3.796485 21.983115,3.620925 20.42502,3.620925 C9.162615,3.620925 3.55271368e-15,12.78354 3.55271368e-15,24.0471 C3.55271368e-15,35.309505 9.162615,44.47212 20.42502,44.47212 C22.248765,44.47212 24.015915,44.22957 25.69875,43.77912 C18.19125,40.78074 12.77892,33.623205 12.33771,25.16514 C12.28689,24.799005 12.251085,24.427095 12.251085,24.0471 C12.251085,19.54029 15.91821,15.873165 20.42502,15.873165 L24.956085,15.87894 L24.956085,15.89511 L38.494995,15.89511 L39.14988,15.896265 L39.14988,15.89511 L40.85235,15.89511 C40.85235,7.11711 33.73524,0 24.956085,0 L24.956085,4.12797 Z" id="Fill-3" fill="#9486FC"></path>
                <path d="M29.395674,9.6734715 C29.395674,7.8774465 30.850974,6.4221465 32.646999,6.4221465 C34.443024,6.4221465 35.898324,7.8774465 35.898324,9.6734715 C35.898324,11.4694965 34.443024,12.9247965 32.646999,12.9247965 C30.850974,12.9247965 29.395674,11.4694965 29.395674,9.6734715" id="Fill-4" fill="#FFFFFF"></path>
                <path d="M32.818401,9.6734715 C32.818401,10.3757115 33.386661,10.9439715 34.088901,10.9439715 C34.789986,10.9439715 35.359401,10.3757115 35.359401,9.6734715 C35.359401,8.9712315 34.789986,8.4029715 34.088901,8.4029715 C33.386661,8.4029715 32.818401,8.9712315 32.818401,9.6734715" id="Fill-5" fill="#9486FC"></path>
            </g>
        </g>
    </g>
</svg>